<?xml version="1.0" encoding="UTF-8"?>
<!DOCTYPE svg PUBLIC "-//W3C//DTD SVG 1.1//EN" "http://www.w3.org/Graphics/SVG/1.1/DTD/svg11.dtd">
<svg version="1.1" id="Layer_1" xmlns="http://www.w3.org/2000/svg" xmlns:xlink="http://www.w3.org/1999/xlink" x="0px" y="0px" width="32px" height="32px" viewBox="0 0 32 32" enable-background="new 0 0 32 32" xml:space="preserve">
  <g id="main">
    <clipPath id="clip_mask">
      <path d="M11.0738,32C13.4811,30.6,15.1,27.9878,15.1,25c0,-4.4735,-3.6265,-8.1,-8.1,-8.1c-2.9878,0,-5.6,1.6189,-7,4.0262L0,0h32v32H11.0738z" fill-rule="evenodd"/>
    </clipPath>
    <g id="icon" clip-path="url(#clip_mask)">
      <g id="transformed_icon" transform="translate(1 0)">
        <path d="M29.6,3H2.4c-0.773,0,-1.4,0.627,-1.4,1.4v3.6h30V4.4C31,3.627,30.373,3,29.6,3zM21,7h-2V5h2V7zM25,7h-2V5h2V7zM29,7h-2V5h2V7z" fill="#3E79B4"/>
        <path d="M2,8v21h28V8H2zM7.131,25.836c0.556,0,1.145,-0.113,1.519,-0.272l0.227,1.1c-0.329,0.159,-1.055,0.34,-1.985,0.34c-2.427,0,-3.901,-1.619,-3.901,-3.956c0,-2.518,1.758,-4.037,4.094,-4.037c0.918,0,1.565,0.193,1.848,0.34l-0.295,1.111c-0.363,-0.159,-0.874,-0.295,-1.497,-0.295c-1.554,0,-2.676,0.975,-2.676,2.813C4.466,24.67,5.441,25.836,7.131,25.836zM10.984,25.904c-0.488,0,-0.839,-0.386,-0.839,-0.885c0,-0.522,0.351,-0.896,0.862,-0.896c0.511,0,0.851,0.363,0.851,0.896C11.858,25.519,11.517,25.904,10.984,25.904zM10.984,22.083c-0.488,0,-0.839,-0.386,-0.839,-0.885c0,-0.522,0.351,-0.896,0.862,-0.896c0.511,0,0.851,0.363,0.851,0.896C11.858,21.697,11.517,22.083,10.984,22.083zM15.177,27.022L12.524,19h0.975l2.654,8.022H15.177zM22.012,23.417L17,25.979v-1l4.039,-1.978v-0.022L17,21v-1l5.012,2.563V23.417z" fill-rule="evenodd" fill="#58595B"/>
        <path d="M8.878,26.664c-0.329,0.159,-1.055,0.34,-1.985,0.34c-2.427,0,-3.901,-1.619,-3.901,-3.956c0,-2.518,1.758,-4.037,4.094,-4.037c0.918,0,1.565,0.193,1.848,0.34l-0.295,1.111c-0.363,-0.159,-0.874,-0.295,-1.497,-0.295c-1.554,0,-2.676,0.975,-2.676,2.813c0,1.689,0.975,2.855,2.665,2.855c0.556,0,1.145,-0.113,1.519,-0.272L8.878,26.664zM10.145,21.198c0,-0.522,0.351,-0.896,0.862,-0.896c0.511,0,0.851,0.363,0.851,0.896c0,0.499,-0.34,0.885,-0.874,0.885C10.497,22.083,10.145,21.697,10.145,21.198zM10.145,25.02c0,-0.522,0.351,-0.896,0.862,-0.896c0.511,0,0.851,0.363,0.851,0.896c0,0.499,-0.34,0.885,-0.874,0.885C10.497,25.904,10.145,25.519,10.145,25.02zM15.177,27.022L12.524,19h0.975l2.654,8.022H15.177zM22.012,23.417L17,25.979v-1l4.039,-1.978v-0.022L17,21v-1l5.012,2.563V23.417z" fill="#FFFFFF"/>
        <path d="M30,8l0.001,21H2V8H1v21c0,0.551,0.449,1,1,1h28c0.551,0,1,-0.449,1,-1V8H30z" fill="#797979"/>
        <path d="M29,7h-2V5h2V7zM25,5h-2v2h2V5zM21,5h-2v2h2V5z" fill="#FFFFFF"/>
      </g>
    </g>
    <g id="overlay">
      <path d="M6.9899,18.0201C3.1295,18.0201,0,21.1496,0,25.0101S3.1295,32,6.9899,32s6.9899,-3.1295,6.9899,-6.9899S10.8504,18.0201,6.9899,18.0201zM10.6399,25.3074L4.825,28.2617c-0.203,0.102,-0.425,-0.0456,-0.425,-0.2728v-5.9086c0,-0.2272,0.222,-0.3748,0.425,-0.2728l5.8235,2.9543C10.8729,24.8744,10.8643,25.1947,10.6399,25.3074z" fill="#4DA07D"/>
    </g>
  </g>
</svg>
