<?xml version="1.0" encoding="UTF-8"?>
<!DOCTYPE svg PUBLIC "-//W3C//DTD SVG 1.1//EN" "http://www.w3.org/Graphics/SVG/1.1/DTD/svg11.dtd">
<svg version="1.1" id="Layer_1" xmlns="http://www.w3.org/2000/svg" xmlns:xlink="http://www.w3.org/1999/xlink" x="0px" y="0px" width="16px" height="16px" viewBox="0 0 16 16" enable-background="new 0 0 16 16" xml:space="preserve">
  <g id="main">
    <clipPath id="clip_mask">
      <path d="M0,0v8.3436C0.9961,6.9278,2.6412,6,4.5,6c3.0327,0,5.5,2.4673,5.5,5.5c0,1.8588,-0.9278,3.5039,-2.3436,4.5H16V0H0z"/>
    </clipPath>
    <g id="icon" clip-path="url(#clip_mask)">
      <g id="transformed_icon" transform="translate(1 0)">
        <path d="M13.6,0H1.4C0.627,0,0,0.627,0,1.4v1.6h15V1.4C15,0.627,14.373,0,13.6,0zM10.5,2H8.5V1h2V2zM13.5,2h-2V1h2V2z" fill="#3E79B4"/>
        <path d="M1,3v11h13V3H1zM4.445,12.099c0.293,0,0.618,-0.061,0.829,-0.155l0.101,-0.045l0.166,0.845l-0.063,0.032c-0.194,0.099,-0.616,0.214,-1.168,0.214c-1.403,0,-2.309,-0.968,-2.309,-2.467c0,-1.505,0.972,-2.516,2.419,-2.516c0.517,0,0.904,0.111,1.093,0.215l0.064,0.035l-0.213,0.847l-0.096,-0.044c-0.167,-0.077,-0.444,-0.169,-0.815,-0.169c-0.884,0,-1.432,0.61,-1.432,1.592C3.019,11.479,3.565,12.099,4.445,12.099zM6.637,12.33c-0.323,0,-0.567,-0.269,-0.567,-0.625c0,-0.366,0.244,-0.632,0.58,-0.632c0.338,0,0.574,0.26,0.574,0.632C7.224,12.067,6.977,12.33,6.637,12.33zM6.637,10.038c-0.323,0,-0.567,-0.269,-0.567,-0.625c0,-0.366,0.244,-0.632,0.58,-0.632c0.338,0,0.574,0.26,0.574,0.632C7.224,9.775,6.977,10.038,6.637,10.038zM9.14,13L7.571,8h0.745l1.569,5H9.14zM13,10.802l-2.756,1.634v-0.814l1.921,-1.134l-1.921,-1.134v-0.814L13,10.173V10.802z" fill-rule="evenodd" fill="#58595B"/>
        <path d="M9.14,13L7.571,8h0.745l1.569,5H9.14zM4.309,12.989c-1.403,0,-2.309,-0.968,-2.309,-2.467c0,-1.505,0.972,-2.516,2.419,-2.516c0.517,0,0.904,0.111,1.093,0.215l0.064,0.035l-0.213,0.847l-0.096,-0.044c-0.167,-0.077,-0.444,-0.169,-0.815,-0.169c-0.884,0,-1.432,0.61,-1.432,1.592c0,0.998,0.546,1.617,1.426,1.617c0.293,0,0.618,-0.061,0.829,-0.155l0.101,-0.045l0.166,0.845l-0.063,0.032C5.284,12.874,4.862,12.989,4.309,12.989zM10.244,11.621l1.921,-1.134l-1.921,-1.134v-0.814L13,10.173v0.628l-2.756,1.634V11.621zM6.637,12.33c-0.323,0,-0.567,-0.269,-0.567,-0.625c0,-0.366,0.244,-0.632,0.58,-0.632c0.338,0,0.574,0.26,0.574,0.632C7.224,12.067,6.977,12.33,6.637,12.33zM6.637,10.038c-0.323,0,-0.567,-0.269,-0.567,-0.625c0,-0.366,0.244,-0.632,0.58,-0.632c0.338,0,0.574,0.26,0.574,0.632C7.224,9.775,6.977,10.038,6.637,10.038z" fill="#FFFFFF"/>
        <path d="M14,3l0.001,11H1V3H0v11c0,0.551,0.449,1,1,1h13c0.551,0,1,-0.449,1,-1V3H14z" fill="#797979"/>
        <path d="M13.5,2h-2V1h2V2zM10.5,1H8.5v1h2V1z" fill="#FFFFFF"/>
      </g>
    </g>
    <g id="overlay">
      <path d="M4.5101,7.0201c-2.4797,0,-4.4899,2.0102,-4.4899,4.49S2.0303,16,4.5101,16S9,13.9898,9,11.5101S6.9898,7.0201,4.5101,7.0201zM6.8546,11.701l-3.7583,1.8977c-0.1304,0.0655,-0.2962,-0.0293,-0.2962,-0.1752V9.6281c0,-0.1459,0.1658,-0.2407,0.2962,-0.1752l3.7523,1.8977C6.9926,11.4229,6.9987,11.6287,6.8546,11.701z" fill="#4DA07D"/>
    </g>
  </g>
</svg>
